# xmcd CD database file
#
# Track frame offsets:
#	150
#	28107
#	52257
#	72355
#	98928
#	119412
#	137536
#	157173
#	187563
#	225685
#
# Disc length: 3271 seconds
#
# Revision: 0
# Processed by: cddbd v1.5.2PL0 Copyright (c) Steve Scherf et al.
# Submitted via: CDex 1.70beta2
#
DISCID=890cc50a
DTITLE=Perturbator - B-Sides And Remixes, Vol. I
DYEAR=2018
DGENRE=Synthwave
TTITLE0=In Disguise
TTITLE1=Unhappy Woman
TTITLE2=These Bones (Have Left You)
TTITLE3=B Side
TTITLE4=I Am The Program
TTITLE5=Shock Doctrine
TTITLE6=Orchid
TTITLE7=Night Slasher II
TTITLE8=Another Sleepless Night
TTITLE9=Behemoth
EXTD=YEAR: 2018
EXTT0=
EXTT1=
EXTT2=
EXTT3=
EXTT4=
EXTT5=
EXTT6=
EXTT7=
EXTT8=
EXTT9=
PLAYORDER=
